<?xml version="1.0" encoding="UTF-8"?>
<svg id="_레이어_1" data-name="레이어_1" xmlns="http://www.w3.org/2000/svg" version="1.1" viewBox="0 0 94.73 96.45">
  <!-- Generator: Adobe Illustrator 29.8.2, SVG Export Plug-In . SVG Version: 2.1.1 Build 3)  -->
  <defs>
    <style>
      .st0 {
        fill: #231815;
      }

      .st1 {
        fill: #f7e800;
      }

      .st2 {
        fill: #fff;
      }
    </style>
  </defs>
  <ellipse class="st1" cx="46.59" cy="48.62" rx="38" ry="38.54"/>
  <path class="st0" d="M31.33,60.77c.62,5.7,6.36,9.21,11.47,10.46,6.17,1.5,13.09.19,18.08-3.81,2.32-1.86,4.1-4.39,4.4-7.41.09-.96-1.41-.95-1.5,0-.3,3.08-2.63,5.54-5.1,7.17-3.04,2-6.69,3.07-10.31,3.16s-7.26-.79-10.34-2.66c-2.5-1.51-4.85-3.87-5.19-6.91-.1-.95-1.6-.96-1.5,0h0Z"/>
  <ellipse class="st2" cx="32.56" cy="45.89" rx="7.92" ry="7.59"/>
  <ellipse class="st2" cx="47.73" cy="45.89" rx="7.92" ry="7.59"/>
  <ellipse class="st2" cx="62.9" cy="45.89" rx="7.92" ry="7.59"/>
  <path class="st0" d="M36.87,48.38c3.86,0,3.87-6,0-6s-3.87,6,0,6h0Z"/>
  <path class="st0" d="M52.29,48.72c3.86,0,3.87-6,0-6s-3.87,6,0,6h0Z"/>
  <path class="st0" d="M67.47,48.72c3.86,0,3.87-6,0-6s-3.87,6,0,6h0Z"/>
</svg>